<svg version="1.1" id="Layer_1" xmlns="http://www.w3.org/2000/svg" xmlns:xlink="http://www.w3.org/1999/xlink" x="0px" y="0px"
	 width="100%" viewBox="0 0 1080 1080" enable-background="new 0 0 1080 1080" xml:space="preserve">
<path fill="#217DFD" opacity="1.000000" stroke="none" 
	d="
M1.000000,1080.000000 
	C1.000000,720.401123 1.000000,360.802277 1.000000,1.000000 
	C360.364227,1.000000 719.728516,1.000000 1079.546387,1.453632 
	C1080.000000,358.919800 1080.000244,715.932312 1079.996094,1072.944824 
	C1079.995972,1075.276123 1079.936035,1077.607544 1079.459717,1079.958984 
	C1077.349609,1079.986328 1075.683716,1079.999634 1074.017822,1079.999634 
	C716.345215,1080.000366 358.672607,1080.000122 1.000000,1080.000000 
M78.113792,582.134338 
	C88.628342,588.255005 92.257469,598.394836 92.413406,609.518005 
	C92.901657,644.345215 92.755959,679.181152 92.877586,714.013611 
	C92.938110,731.345520 94.074066,748.541199 99.163780,765.270020 
	C102.775139,777.139832 107.978943,788.099670 116.305298,797.467346 
	C134.658600,818.115967 159.283508,825.181763 185.245163,827.531677 
	C203.930405,829.222961 222.878296,827.978394 241.708221,828.138367 
	C244.988220,828.166199 246.014755,826.795166 246.000870,823.635559 
	C245.912216,803.469299 245.910568,783.302307 246.004593,763.136169 
	C246.020035,759.822449 244.657486,758.730347 241.524643,758.795593 
	C234.694077,758.937866 227.832123,759.289612 221.034714,758.814941 
	C214.440109,758.354370 207.640976,757.809692 201.406326,755.816956 
	C187.172729,751.267456 182.108521,739.529541 181.719162,725.959106 
	C180.605652,687.148499 180.403244,648.310486 179.128662,609.506653 
	C178.858261,601.274658 176.456482,592.796204 173.468781,585.034790 
	C166.940887,568.076904 154.210617,556.858521 137.777328,549.429016 
	C134.196304,547.810059 131.292603,544.692932 128.076950,542.265869 
	C131.152130,539.683472 133.840225,536.238525 137.364548,534.657043 
	C162.609344,523.328674 176.051132,503.560150 178.944748,476.561066 
	C180.398056,463.000854 180.902222,449.302856 181.131592,435.655365 
	C181.560043,410.160858 181.285461,384.654297 181.749695,359.160858 
	C181.853210,353.476105 182.992905,347.507477 185.065781,342.222687 
	C189.770416,330.228363 200.331741,326.099396 212.086319,325.185486 
	C221.365158,324.464020 230.747238,324.795532 240.072098,325.060150 
	C244.549957,325.187286 246.194702,323.922882 246.139832,319.199463 
	C245.909470,299.368866 245.905991,279.532379 246.141190,259.701874 
	C246.198029,254.908127 244.431549,253.691788 240.007614,253.918427 
	C221.871506,254.847580 203.667404,254.932037 185.601044,256.570312 
	C173.615631,257.657135 161.422943,259.628876 150.018890,263.341766 
	C119.777222,273.187744 103.209229,295.937561 97.503479,326.070404 
	C94.184692,343.597321 93.510506,361.757172 93.068474,379.667297 
	C92.307899,410.484375 92.804543,441.330780 92.407578,472.160126 
	C92.336243,477.700195 91.237892,483.486603 89.332642,488.690247 
	C85.170631,500.057739 75.558952,504.436432 64.327240,505.269196 
	C55.703114,505.908630 46.991726,505.846985 38.343060,505.500397 
	C33.195393,505.294098 31.754097,507.091156 31.809078,512.041870 
	C32.025608,531.539429 31.889841,551.040833 31.899872,570.540771 
	C31.903177,576.964111 31.923243,576.912415 38.234051,576.822693 
	C51.540432,576.633545 64.889435,576.170166 78.113792,582.134338 
M966.820251,287.682373 
	C949.290527,267.164124 925.665527,258.734619 900.023621,256.490173 
	C880.354126,254.768478 860.425049,256.048340 840.612244,255.892319 
	C837.280151,255.866089 835.903625,256.892059 835.928833,260.479370 
	C836.069580,280.477570 836.060791,300.477692 835.937317,320.476135 
	C835.915833,323.960297 837.065613,325.150513 840.549805,325.085236 
	C849.879333,324.910522 859.229919,324.697693 868.543762,325.122650 
	C881.928894,325.733429 893.441284,331.588440 896.507629,345.322784 
	C898.590393,354.651581 900.126587,364.293884 900.291687,373.823944 
	C900.810974,403.814575 900.139526,433.828644 900.854553,463.811584 
	C901.100098,474.108673 902.834473,484.750000 906.062805,494.515350 
	C912.345886,513.520935 926.347046,525.931946 944.292236,534.281921 
	C947.854675,535.939575 950.800415,538.922485 954.748230,541.821228 
	C951.451233,544.375671 949.396851,546.301636 947.039124,547.725342 
	C941.944336,550.801758 936.503540,553.331421 931.542480,556.598267 
	C916.070251,566.786560 905.950684,581.086670 903.278137,599.339600 
	C901.190918,613.594543 901.147095,628.175171 900.619934,642.626587 
	C899.527710,672.567383 902.504517,702.588928 898.550964,732.491089 
	C896.808228,745.672668 887.183594,755.865845 873.815186,757.000000 
	C862.719482,757.941467 851.590637,758.589539 840.462952,759.003479 
	C836.880920,759.136780 835.952759,760.370605 835.971985,763.731934 
	C836.085388,783.563904 836.135925,803.397766 835.940613,823.228455 
	C835.899536,827.396423 837.516235,828.233826 841.236084,828.185425 
	C854.233398,828.016418 867.236572,827.962524 880.233154,828.158875 
	C898.526184,828.435181 916.291687,825.640930 933.354126,819.093994 
	C950.615356,812.470642 964.616882,801.654114 973.850342,785.355286 
	C983.045654,769.123657 986.930176,751.378662 987.333862,732.933960 
	C988.266907,690.308044 988.743408,647.672363 989.646179,605.045654 
	C989.933716,591.467407 999.455566,580.408325 1011.957092,578.967773 
	C1022.520447,577.750549 1033.164429,577.036316 1043.792480,576.668518 
	C1048.430786,576.507996 1049.745239,574.958740 1049.701904,570.498657 
	C1049.516113,551.334595 1049.629639,532.167603 1049.621826,513.001709 
	C1049.618774,505.644440 1049.594604,505.872040 1042.003418,505.569092 
	C1030.930054,505.127228 1019.785828,506.833466 1008.799561,503.419800 
	C996.923340,499.729523 991.303284,491.194794 989.805054,481.375549 
	C988.304932,471.543457 987.855713,461.484894 987.760315,451.517822 
	C987.537109,428.188690 987.995911,404.853333 987.809937,381.523438 
	C987.647278,361.113220 988.655945,340.612244 983.055115,320.563416 
	C979.756042,308.753998 974.867004,297.872864 966.820251,287.682373 
M702.262695,582.842468 
	C711.472839,567.574707 719.789307,551.748901 729.539490,536.818298 
	C730.117859,537.033203 730.696289,537.248169 731.274658,537.463074 
	C731.274658,539.388062 731.274536,541.312988 731.274658,543.237915 
	C731.276489,564.732056 731.261963,586.226196 731.284363,607.720337 
	C731.308655,631.047058 731.334045,654.373840 731.434326,677.700317 
	C731.459595,683.570374 734.838074,687.672974 740.252686,687.742554 
	C756.078430,687.945801 771.911499,687.981812 787.735046,687.705994 
	C792.199951,687.628235 795.555298,685.058960 796.117371,680.080139 
	C796.601501,675.791931 797.442017,671.499390 797.445190,667.208191 
	C797.504150,586.730286 797.464905,506.252258 797.423157,425.774261 
	C797.421997,423.450226 797.417358,421.079376 796.989014,418.810638 
	C795.324341,409.993866 792.127502,407.419037 783.087769,407.399384 
	C771.257751,407.373688 759.409546,407.796234 747.602844,407.269897 
	C736.691345,406.783478 729.511841,411.971313 724.539368,420.789093 
	C710.300842,446.038116 696.319092,471.431732 682.177246,496.735413 
	C676.945679,506.095917 671.549194,515.364258 665.792236,525.437073 
	C658.433777,512.313721 651.572510,500.064606 644.699402,487.822113 
	C631.316650,463.984772 617.965942,440.129303 604.513611,416.331268 
	C601.145447,410.372894 595.926514,407.376617 588.945251,407.412781 
	C574.616394,407.486969 560.286499,407.370483 545.957642,407.450104 
	C537.416626,407.497528 533.360107,411.466888 533.355469,419.981171 
	C533.309021,505.291168 533.306702,590.601135 533.340210,675.911133 
	C533.343384,684.068115 537.140259,687.808960 545.272583,687.849670 
	C559.768188,687.922302 574.264648,687.914246 588.760376,687.849243 
	C596.709412,687.813538 600.044312,684.677429 600.076538,676.750916 
	C600.252808,633.431396 600.313721,590.111328 600.413391,546.791504 
	C600.418091,544.736816 600.414001,542.682129 600.414001,540.627380 
	C600.878418,540.494873 601.342834,540.362366 601.807190,540.229797 
	C602.801575,541.403748 603.969421,542.471252 604.764160,543.767578 
	C615.938660,561.995178 627.339600,580.092651 638.085205,598.570801 
	C643.760254,608.329407 650.899475,615.023010 662.626953,615.493469 
	C674.345215,615.963684 685.893616,613.453003 691.881897,601.779053 
	C695.054016,595.595032 698.581848,589.593567 702.262695,582.842468 
M334.924194,593.908813 
	C333.288696,587.353821 328.720490,583.971130 322.340668,583.832397 
	C308.357330,583.528076 294.349518,583.388489 280.378113,583.901001 
	C273.354980,584.158630 268.041534,588.010254 268.227509,597.186768 
	C268.437866,607.565247 269.451813,617.630310 272.705811,627.547607 
	C277.367554,641.755249 284.861298,654.052368 296.255829,663.741699 
	C312.848633,677.851440 332.716827,684.995361 353.863678,687.303772 
	C381.566315,690.327820 408.669312,686.980042 433.004547,671.975403 
	C458.048981,656.533508 473.198486,634.958252 473.219452,604.340088 
	C473.253265,554.861816 473.582642,505.383789 473.730469,455.905426 
	C473.773743,441.414825 473.889832,426.915741 473.460785,412.435699 
	C473.217682,404.230377 469.186401,400.809937 461.059937,400.802429 
	C418.078278,400.762726 375.096497,400.762482 332.114838,400.807648 
	C324.494324,400.815643 319.737366,405.608612 319.659271,413.282013 
	C319.554138,423.609955 319.727417,433.941101 319.581848,444.268097 
	C319.406769,456.687317 320.586060,461.347839 335.617004,461.306976 
	C356.771423,461.249481 377.926666,461.526276 399.081543,461.530609 
	C403.189667,461.531433 405.766266,462.356445 405.710693,467.265594 
	C405.199921,512.397095 404.806488,557.529968 404.367523,602.662292 
	C404.309570,608.620728 401.655090,613.446350 397.847229,617.848877 
	C393.098389,623.339355 386.671722,625.569153 379.963959,626.870972 
	C370.212158,628.763489 360.428162,628.877441 351.241791,624.276917 
	C339.087097,618.189880 336.612549,606.667908 334.924194,593.908813 
z"/>
<path fill="#589EFE" opacity="1.000000" stroke="none" 
	d="
M1.000000,1080.500000 
	C358.672607,1080.000122 716.345215,1080.000366 1074.017822,1079.999634 
	C1075.683716,1079.999634 1077.349609,1079.986328 1079.734619,1079.977417 
	C1080.635742,1079.983887 1080.817871,1079.991943 1081.000000,1080.000000 
	C1080.833374,1080.333374 1080.684082,1080.943970 1080.497192,1080.955688 
	C1079.169067,1081.038940 1077.833374,1081.000000 1076.500000,1081.000000 
	C718.000000,1081.000000 359.500000,1081.000000 1.000000,1080.500000 
z"/>
<path fill="#4D97FD" opacity="1.000000" stroke="none" 
	d="
M1081.000000,1079.546387 
	C1080.817871,1079.991943 1080.635742,1079.983887 1080.178833,1079.957275 
	C1079.936035,1077.607544 1079.995972,1075.276123 1079.996094,1072.944824 
	C1080.000244,715.932312 1080.000000,358.919800 1080.000000,1.453633 
	C1080.333374,1.166479 1080.943726,1.315538 1080.955566,1.502226 
	C1081.039062,2.829811 1081.000000,4.165095 1081.000000,5.497925 
	C1081.000000,363.362885 1081.000000,721.227844 1081.000000,1079.546387 
z"/>
<path fill="#FBFDFF" opacity="1.000000" stroke="none" 
	d="
M77.798294,581.927673 
	C64.889435,576.170166 51.540432,576.633545 38.234051,576.822693 
	C31.923243,576.912415 31.903177,576.964111 31.899872,570.540771 
	C31.889841,551.040833 32.025608,531.539429 31.809078,512.041870 
	C31.754097,507.091156 33.195393,505.294098 38.343060,505.500397 
	C46.991726,505.846985 55.703114,505.908630 64.327240,505.269196 
	C75.558952,504.436432 85.170631,500.057739 89.332642,488.690247 
	C91.237892,483.486603 92.336243,477.700195 92.407578,472.160126 
	C92.804543,441.330780 92.307899,410.484375 93.068474,379.667297 
	C93.510506,361.757172 94.184692,343.597321 97.503479,326.070404 
	C103.209229,295.937561 119.777222,273.187744 150.018890,263.341766 
	C161.422943,259.628876 173.615631,257.657135 185.601044,256.570312 
	C203.667404,254.932037 221.871506,254.847580 240.007614,253.918427 
	C244.431549,253.691788 246.198029,254.908127 246.141190,259.701874 
	C245.905991,279.532379 245.909470,299.368866 246.139832,319.199463 
	C246.194702,323.922882 244.549957,325.187286 240.072098,325.060150 
	C230.747238,324.795532 221.365158,324.464020 212.086319,325.185486 
	C200.331741,326.099396 189.770416,330.228363 185.065781,342.222687 
	C182.992905,347.507477 181.853210,353.476105 181.749695,359.160858 
	C181.285461,384.654297 181.560043,410.160858 181.131592,435.655365 
	C180.902222,449.302856 180.398056,463.000854 178.944748,476.561066 
	C176.051132,503.560150 162.609344,523.328674 137.364548,534.657043 
	C133.840225,536.238525 131.152130,539.683472 128.076965,542.265869 
	C131.292603,544.692932 134.196304,547.810059 137.777328,549.429016 
	C154.210617,556.858521 166.940887,568.076904 173.468781,585.034790 
	C176.456482,592.796204 178.858261,601.274658 179.128662,609.506653 
	C180.403244,648.310486 180.605652,687.148499 181.719162,725.959106 
	C182.108521,739.529541 187.172729,751.267456 201.406326,755.816956 
	C207.640976,757.809692 214.440109,758.354370 221.034714,758.814941 
	C227.832123,759.289612 234.694077,758.937866 241.524643,758.795593 
	C244.657486,758.730347 246.020035,759.822449 246.004593,763.136169 
	C245.910568,783.302307 245.912216,803.469299 246.000870,823.635559 
	C246.014755,826.795166 244.988220,828.166199 241.708221,828.138367 
	C222.878296,827.978394 203.930405,829.222961 185.245163,827.531677 
	C159.283508,825.181763 134.658600,818.115967 116.305298,797.467346 
	C107.978943,788.099670 102.775139,777.139832 99.163780,765.270020 
	C94.074066,748.541199 92.938110,731.345520 92.877586,714.013611 
	C92.755959,679.181152 92.901657,644.345215 92.413406,609.518005 
	C92.257469,598.394836 88.628342,588.255005 77.798294,581.927673 
z"/>
<path fill="#FCFDFF" opacity="1.000000" stroke="none" 
	d="
M967.037415,287.964325 
	C974.867004,297.872864 979.756042,308.753998 983.055115,320.563416 
	C988.655945,340.612244 987.647278,361.113220 987.809937,381.523438 
	C987.995911,404.853333 987.537109,428.188690 987.760315,451.517822 
	C987.855713,461.484894 988.304932,471.543457 989.805054,481.375549 
	C991.303284,491.194794 996.923340,499.729523 1008.799561,503.419800 
	C1019.785828,506.833466 1030.930054,505.127228 1042.003418,505.569092 
	C1049.594604,505.872040 1049.618774,505.644440 1049.621826,513.001709 
	C1049.629639,532.167603 1049.516113,551.334595 1049.701904,570.498657 
	C1049.745239,574.958740 1048.430786,576.507996 1043.792480,576.668518 
	C1033.164429,577.036316 1022.520447,577.750549 1011.957092,578.967773 
	C999.455566,580.408325 989.933716,591.467407 989.646179,605.045654 
	C988.743408,647.672363 988.266907,690.308044 987.333862,732.933960 
	C986.930176,751.378662 983.045654,769.123657 973.850342,785.355286 
	C964.616882,801.654114 950.615356,812.470642 933.354126,819.093994 
	C916.291687,825.640930 898.526184,828.435181 880.233154,828.158875 
	C867.236572,827.962524 854.233398,828.016418 841.236084,828.185425 
	C837.516235,828.233826 835.899536,827.396423 835.940613,823.228455 
	C836.135925,803.397766 836.085388,783.563904 835.971985,763.731934 
	C835.952759,760.370605 836.880920,759.136780 840.462952,759.003479 
	C851.590637,758.589539 862.719482,757.941467 873.815186,757.000000 
	C887.183594,755.865845 896.808228,745.672668 898.550964,732.491089 
	C902.504517,702.588928 899.527710,672.567383 900.619934,642.626587 
	C901.147095,628.175171 901.190918,613.594543 903.278137,599.339600 
	C905.950684,581.086670 916.070251,566.786560 931.542480,556.598267 
	C936.503540,553.331421 941.944336,550.801758 947.039124,547.725342 
	C949.396851,546.301636 951.451233,544.375671 954.748230,541.821228 
	C950.800415,538.922485 947.854675,535.939575 944.292236,534.281921 
	C926.347046,525.931946 912.345886,513.520935 906.062805,494.515350 
	C902.834473,484.750000 901.100098,474.108673 900.854553,463.811584 
	C900.139526,433.828644 900.810974,403.814575 900.291687,373.823944 
	C900.126587,364.293884 898.590393,354.651581 896.507629,345.322784 
	C893.441284,331.588440 881.928894,325.733429 868.543762,325.122650 
	C859.229919,324.697693 849.879333,324.910522 840.549805,325.085236 
	C837.065613,325.150513 835.915833,323.960297 835.937317,320.476135 
	C836.060791,300.477692 836.069580,280.477570 835.928833,260.479370 
	C835.903625,256.892059 837.280151,255.866089 840.612244,255.892319 
	C860.425049,256.048340 880.354126,254.768478 900.023621,256.490173 
	C925.665527,258.734619 949.290527,267.164124 967.037415,287.964325 
z"/>
<path fill="#FBFCFF" opacity="1.000000" stroke="none" 
	d="
M702.105896,583.176086 
	C698.581848,589.593567 695.054016,595.595032 691.881897,601.779053 
	C685.893616,613.453003 674.345215,615.963684 662.626953,615.493469 
	C650.899475,615.023010 643.760254,608.329407 638.085205,598.570801 
	C627.339600,580.092651 615.938660,561.995178 604.764160,543.767578 
	C603.969421,542.471252 602.801575,541.403748 601.807190,540.229797 
	C601.342834,540.362366 600.878418,540.494873 600.414001,540.627380 
	C600.414001,542.682129 600.418091,544.736816 600.413391,546.791504 
	C600.313721,590.111328 600.252808,633.431396 600.076538,676.750916 
	C600.044312,684.677429 596.709412,687.813538 588.760376,687.849243 
	C574.264648,687.914246 559.768188,687.922302 545.272583,687.849670 
	C537.140259,687.808960 533.343384,684.068115 533.340210,675.911133 
	C533.306702,590.601135 533.309021,505.291168 533.355469,419.981171 
	C533.360107,411.466888 537.416626,407.497528 545.957642,407.450104 
	C560.286499,407.370483 574.616394,407.486969 588.945251,407.412781 
	C595.926514,407.376617 601.145447,410.372894 604.513611,416.331268 
	C617.965942,440.129303 631.316650,463.984772 644.699402,487.822113 
	C651.572510,500.064606 658.433777,512.313721 665.792236,525.437073 
	C671.549194,515.364258 676.945679,506.095917 682.177246,496.735413 
	C696.319092,471.431732 710.300842,446.038116 724.539368,420.789093 
	C729.511841,411.971313 736.691345,406.783478 747.602844,407.269897 
	C759.409546,407.796234 771.257751,407.373688 783.087769,407.399384 
	C792.127502,407.419037 795.324341,409.993866 796.989014,418.810638 
	C797.417358,421.079376 797.421997,423.450226 797.423157,425.774261 
	C797.464905,506.252258 797.504150,586.730286 797.445190,667.208191 
	C797.442017,671.499390 796.601501,675.791931 796.117371,680.080139 
	C795.555298,685.058960 792.199951,687.628235 787.735046,687.705994 
	C771.911499,687.981812 756.078430,687.945801 740.252686,687.742554 
	C734.838074,687.672974 731.459595,683.570374 731.434326,677.700317 
	C731.334045,654.373840 731.308655,631.047058 731.284363,607.720337 
	C731.261963,586.226196 731.276489,564.732056 731.274658,543.237915 
	C731.274536,541.312988 731.274658,539.388062 731.274658,537.463074 
	C730.696289,537.248169 730.117859,537.033203 729.539490,536.818298 
	C719.789307,551.748901 711.472839,567.574707 702.105896,583.176086 
z"/>
<path fill="#FAFCFF" opacity="1.000000" stroke="none" 
	d="
M334.980072,594.311279 
	C336.612549,606.667908 339.087097,618.189880 351.241791,624.276917 
	C360.428162,628.877441 370.212158,628.763489 379.963959,626.870972 
	C386.671722,625.569153 393.098389,623.339355 397.847229,617.848877 
	C401.655090,613.446350 404.309570,608.620728 404.367523,602.662292 
	C404.806488,557.529968 405.199921,512.397095 405.710693,467.265594 
	C405.766266,462.356445 403.189667,461.531433 399.081543,461.530609 
	C377.926666,461.526276 356.771423,461.249481 335.617004,461.306976 
	C320.586060,461.347839 319.406769,456.687317 319.581848,444.268097 
	C319.727417,433.941101 319.554138,423.609955 319.659271,413.282013 
	C319.737366,405.608612 324.494324,400.815643 332.114838,400.807648 
	C375.096497,400.762482 418.078278,400.762726 461.059937,400.802429 
	C469.186401,400.809937 473.217682,404.230377 473.460785,412.435699 
	C473.889832,426.915741 473.773743,441.414825 473.730469,455.905426 
	C473.582642,505.383789 473.253265,554.861816 473.219452,604.340088 
	C473.198486,634.958252 458.048981,656.533508 433.004547,671.975403 
	C408.669312,686.980042 381.566315,690.327820 353.863678,687.303772 
	C332.716827,684.995361 312.848633,677.851440 296.255829,663.741699 
	C284.861298,654.052368 277.367554,641.755249 272.705811,627.547607 
	C269.451813,617.630310 268.437866,607.565247 268.227509,597.186768 
	C268.041534,588.010254 273.354980,584.158630 280.378113,583.901001 
	C294.349518,583.388489 308.357330,583.528076 322.340668,583.832397 
	C328.720490,583.971130 333.288696,587.353821 334.980072,594.311279 
z"/>
</svg>