<svg version="1.1" id="Layer_1" xmlns="http://www.w3.org/2000/svg" xmlns:xlink="http://www.w3.org/1999/xlink" x="0px" y="0px"
	 width="100%" viewBox="0 0 500 500" enable-background="new 0 0 500 500" xml:space="preserve">
<path fill="#207DFD" opacity="1.000000" stroke="none" 
	d="
M230.000000,501.000000 
	C153.333359,501.000000 77.166702,501.000000 1.000041,501.000000 
	C1.000027,334.333405 1.000027,167.666779 1.000014,1.000130 
	C167.666565,1.000087 334.333130,1.000087 500.999756,1.000043 
	C500.999847,167.666519 500.999847,334.333038 500.999939,500.999786 
	C410.833344,501.000000 320.666656,501.000000 230.000000,501.000000 
M63.938477,364.468597 
	C67.830254,370.337402 73.146584,374.442780 79.577637,377.209076 
	C94.173416,383.487427 109.485634,381.834106 124.612198,381.907410 
	C124.612198,371.283020 124.612198,361.231049 124.612198,350.875427 
	C119.567902,350.875427 114.894211,351.134766 110.259468,350.820221 
	C101.211174,350.206177 96.685951,345.652832 95.882103,336.691376 
	C95.614700,333.710388 95.558571,330.705048 95.524185,327.709473 
	C95.365524,313.886353 95.502411,300.054321 95.046494,286.241608 
	C94.575424,271.970215 88.039177,261.546448 74.356926,256.145477 
	C73.135391,255.663269 72.202927,254.448761 71.136208,253.574371 
	C72.257088,252.587982 73.218346,251.214554 74.523956,250.676086 
	C85.547104,246.130051 92.557137,238.305893 94.267830,226.355103 
	C95.043175,220.938599 95.357437,215.426590 95.464378,209.949768 
	C95.724472,196.629410 95.435020,183.292160 95.962074,169.985291 
	C96.318619,160.983368 101.289154,156.395447 110.228088,155.832840 
	C115.001671,155.532394 119.809731,155.779526 124.700500,155.779526 
	C124.700500,145.030609 124.700500,135.125702 124.700500,124.271454 
	C113.104294,124.902206 101.714317,124.625633 90.626976,126.324341 
	C71.621155,129.236237 61.370399,139.888336 57.819935,158.900925 
	C56.818993,164.260925 56.593414,169.815643 56.513966,175.288330 
	C56.289104,190.776718 56.602997,206.276764 56.164013,221.756897 
	C55.842781,233.084808 50.828922,237.395401 39.377827,237.477188 
	C35.928028,237.501816 32.477905,237.481018 28.819984,237.481018 
	C28.819984,248.307617 28.819984,258.513062 28.819984,269.134247 
	C33.340645,269.134247 37.513630,268.879730 41.645096,269.185760 
	C51.069466,269.883820 55.430885,274.331970 56.170719,283.669708 
	C56.380939,286.322937 56.440861,288.993683 56.446556,291.656647 
	C56.475746,305.316895 56.420391,318.977478 56.481815,332.637512 
	C56.530899,343.553436 57.606796,354.264923 63.938477,364.468597 
M458.092102,192.500015 
	C458.058807,184.171585 458.382324,175.823151 457.916534,167.518982 
	C457.000793,151.193680 451.885742,136.984787 435.650513,129.720123 
	C421.006683,123.167564 405.463562,124.923012 389.989044,124.999023 
	C389.989044,135.361389 389.989044,145.141922 389.989044,155.879913 
	C395.332214,155.879913 400.477966,155.594788 405.579102,155.950195 
	C412.355560,156.422318 416.687744,160.318176 418.033478,166.876785 
	C418.663361,169.946503 418.926971,173.136627 418.958282,176.276154 
	C419.099487,190.433273 418.871704,204.597244 419.210876,218.748337 
	C419.558929,233.269485 425.580658,244.360703 439.637909,250.175415 
	C441.093811,250.777618 442.140656,252.368851 443.377289,253.501190 
	C442.041992,254.563080 440.857788,255.969467 439.347321,256.631927 
	C428.060272,261.582153 421.168365,269.804993 419.885864,282.279816 
	C419.478241,286.244720 419.073761,290.230072 419.038452,294.209351 
	C418.929047,306.534912 419.042297,318.862244 418.986328,331.188507 
	C418.917847,346.264709 414.231171,350.943237 399.299255,350.996582 
	C396.201508,351.007660 393.103729,350.998199 390.024841,350.998199 
	C390.024841,361.651337 390.024841,371.582336 390.024841,381.926239 
	C403.055573,381.853455 415.849548,382.965607 428.422485,379.552551 
	C443.442291,375.475250 452.983459,366.043213 456.300690,350.744507 
	C457.247223,346.379181 457.885406,341.862213 457.946350,337.404938 
	C458.162598,321.583221 458.032318,305.757019 458.123962,289.933044 
	C458.141266,286.953766 458.339386,283.934937 458.862244,281.007263 
	C460.112671,274.006042 463.122406,270.799194 470.223907,269.694824 
	C475.253510,268.912689 480.416107,268.985901 485.681030,268.667511 
	C485.681030,258.323090 485.681030,248.120529 485.681030,237.486816 
	C482.390259,237.486816 479.417236,237.491043 476.444183,237.486069 
	C463.278168,237.464081 458.385223,232.742188 458.137939,219.484970 
	C457.976410,210.826050 458.097565,202.161865 458.092102,192.500015 
M266.564789,193.067047 
	C265.398651,193.067154 264.232513,193.065720 263.066376,193.067612 
	C254.815628,193.081039 254.072922,193.834076 254.069092,202.283966 
	C254.062683,216.445419 254.067032,230.606873 254.067078,244.768326 
	C254.067154,266.926849 254.056030,289.085358 254.074493,311.243866 
	C254.080078,317.932373 255.164307,318.970825 261.958832,318.998077 
	C266.457123,319.016113 270.955505,319.007050 275.453857,319.000549 
	C283.426208,318.989075 284.095306,318.351471 284.100464,310.571777 
	C284.112213,292.911591 284.104462,275.251434 284.104675,257.591248 
	C284.104706,255.361923 284.104675,253.132614 284.104675,250.903290 
	C290.716339,260.282928 296.481415,269.759369 301.727417,279.514984 
	C304.326569,284.348419 307.528717,286.275299 313.148407,286.341492 
	C319.291260,286.413788 323.149292,284.555237 325.821320,278.992767 
	C328.481049,273.455811 331.835327,268.251740 334.901062,262.910889 
	C337.251312,258.816437 339.626373,254.736221 341.990387,250.649673 
	C342.309662,250.749649 342.628967,250.849625 342.948242,250.949600 
	C342.948242,252.039703 342.948181,253.129807 342.948212,254.219910 
	C342.949036,273.546143 342.924927,292.872406 342.966339,312.198547 
	C342.978241,317.759277 344.183655,318.919891 349.731842,318.988495 
	C354.396088,319.046204 359.061584,319.007690 363.726532,319.000305 
	C371.692566,318.987701 372.354431,318.370026 372.358215,310.522247 
	C372.373810,278.200806 372.366699,245.879379 372.364410,213.557938 
	C372.364044,208.726486 372.321747,203.894928 372.341614,199.063599 
	C372.358734,194.898773 370.305267,192.996536 366.168762,193.055618 
	C361.171631,193.127029 356.158722,193.302734 351.178284,193.004776 
	C345.681183,192.675949 342.311859,194.797653 339.652161,199.734909 
	C331.295044,215.248337 322.491699,230.521408 313.531281,246.474899 
	C306.026093,233.015778 298.896729,220.080246 291.623718,207.225952 
	C282.541534,191.174088 286.241608,193.202271 266.564789,193.067047 
M146.915817,307.596436 
	C164.537155,322.655396 196.296310,322.877747 214.109131,308.047546 
	C221.955307,301.515167 226.666534,292.976074 226.830017,282.945770 
	C227.302292,253.968872 227.092545,224.980988 227.175446,195.997498 
	C227.186813,192.023651 225.169250,190.182343 221.335449,190.179688 
	C202.178787,190.166397 183.022110,190.170135 163.865448,190.181839 
	C159.895004,190.184265 158.173096,192.378250 158.170090,196.178955 
	C158.166794,200.343460 158.145752,204.508011 158.158798,208.672455 
	C158.183472,216.546051 158.803024,217.165436 166.747162,217.176910 
	C176.694992,217.191269 186.642838,217.180359 196.783768,217.180359 
	C196.783768,238.182114 197.280411,258.636322 196.560242,279.047607 
	C196.233002,288.322388 189.533676,292.504852 179.255280,292.252747 
	C170.804520,292.045471 166.000229,287.661743 164.983841,278.698212 
	C164.538284,274.768768 163.196365,272.466492 158.890244,272.539459 
	C152.895142,272.641083 146.896255,272.620605 140.900391,272.543396 
	C136.650696,272.488678 134.892593,274.535217 134.985916,278.690186 
	C135.231171,289.609406 138.438049,299.298767 146.915817,307.596436 
z"/>
<path fill="#FDFEFF" opacity="1.000000" stroke="none" 
	d="
M63.733086,364.168762 
	C57.606796,354.264923 56.530899,343.553436 56.481815,332.637512 
	C56.420391,318.977478 56.475746,305.316895 56.446556,291.656647 
	C56.440861,288.993683 56.380939,286.322937 56.170719,283.669708 
	C55.430885,274.331970 51.069466,269.883820 41.645096,269.185760 
	C37.513630,268.879730 33.340645,269.134247 28.819984,269.134247 
	C28.819984,258.513062 28.819984,248.307617 28.819984,237.481018 
	C32.477905,237.481018 35.928028,237.501816 39.377827,237.477188 
	C50.828922,237.395401 55.842781,233.084808 56.164013,221.756897 
	C56.602997,206.276764 56.289104,190.776718 56.513966,175.288330 
	C56.593414,169.815643 56.818993,164.260925 57.819935,158.900925 
	C61.370399,139.888336 71.621155,129.236237 90.626976,126.324341 
	C101.714317,124.625633 113.104294,124.902206 124.700500,124.271454 
	C124.700500,135.125702 124.700500,145.030609 124.700500,155.779526 
	C119.809731,155.779526 115.001671,155.532394 110.228088,155.832840 
	C101.289154,156.395447 96.318619,160.983368 95.962074,169.985291 
	C95.435020,183.292160 95.724472,196.629410 95.464378,209.949768 
	C95.357437,215.426590 95.043175,220.938599 94.267830,226.355103 
	C92.557137,238.305893 85.547104,246.130051 74.523956,250.676086 
	C73.218346,251.214554 72.257088,252.587982 71.136208,253.574371 
	C72.202927,254.448761 73.135391,255.663269 74.356926,256.145477 
	C88.039177,261.546448 94.575424,271.970215 95.046494,286.241608 
	C95.502411,300.054321 95.365524,313.886353 95.524185,327.709473 
	C95.558571,330.705048 95.614700,333.710388 95.882103,336.691376 
	C96.685951,345.652832 101.211174,350.206177 110.259468,350.820221 
	C114.894211,351.134766 119.567902,350.875427 124.612198,350.875427 
	C124.612198,361.231049 124.612198,371.283020 124.612198,381.907410 
	C109.485634,381.834106 94.173416,383.487427 79.577637,377.209076 
	C73.146584,374.442780 67.830254,370.337402 63.733086,364.168762 
z"/>
<path fill="#FEFEFF" opacity="1.000000" stroke="none" 
	d="
M458.092102,193.000031 
	C458.097565,202.161865 457.976410,210.826050 458.137939,219.484970 
	C458.385223,232.742188 463.278168,237.464081 476.444183,237.486069 
	C479.417236,237.491043 482.390259,237.486816 485.681030,237.486816 
	C485.681030,248.120529 485.681030,258.323090 485.681030,268.667511 
	C480.416107,268.985901 475.253510,268.912689 470.223907,269.694824 
	C463.122406,270.799194 460.112671,274.006042 458.862244,281.007263 
	C458.339386,283.934937 458.141266,286.953766 458.123962,289.933044 
	C458.032318,305.757019 458.162598,321.583221 457.946350,337.404938 
	C457.885406,341.862213 457.247223,346.379181 456.300690,350.744507 
	C452.983459,366.043213 443.442291,375.475250 428.422485,379.552551 
	C415.849548,382.965607 403.055573,381.853455 390.024841,381.926239 
	C390.024841,371.582336 390.024841,361.651337 390.024841,350.998199 
	C393.103729,350.998199 396.201508,351.007660 399.299255,350.996582 
	C414.231171,350.943237 418.917847,346.264709 418.986328,331.188507 
	C419.042297,318.862244 418.929047,306.534912 419.038452,294.209351 
	C419.073761,290.230072 419.478241,286.244720 419.885864,282.279816 
	C421.168365,269.804993 428.060272,261.582153 439.347321,256.631927 
	C440.857788,255.969467 442.041992,254.563080 443.377289,253.501190 
	C442.140656,252.368851 441.093811,250.777618 439.637909,250.175415 
	C425.580658,244.360703 419.558929,233.269485 419.210876,218.748337 
	C418.871704,204.597244 419.099487,190.433273 418.958282,176.276154 
	C418.926971,173.136627 418.663361,169.946503 418.033478,166.876785 
	C416.687744,160.318176 412.355560,156.422318 405.579102,155.950195 
	C400.477966,155.594788 395.332214,155.879913 389.989044,155.879913 
	C389.989044,145.141922 389.989044,135.361389 389.989044,124.999023 
	C405.463562,124.923012 421.006683,123.167564 435.650513,129.720123 
	C451.885742,136.984787 457.000793,151.193680 457.916534,167.518982 
	C458.382324,175.823151 458.058807,184.171585 458.092102,193.000031 
z"/>
<path fill="#FEFEFF" opacity="1.000000" stroke="none" 
	d="
M267.053284,193.067047 
	C286.241608,193.202271 282.541534,191.174088 291.623718,207.225952 
	C298.896729,220.080246 306.026093,233.015778 313.531281,246.474899 
	C322.491699,230.521408 331.295044,215.248337 339.652161,199.734909 
	C342.311859,194.797653 345.681183,192.675949 351.178284,193.004776 
	C356.158722,193.302734 361.171631,193.127029 366.168762,193.055618 
	C370.305267,192.996536 372.358734,194.898773 372.341614,199.063599 
	C372.321747,203.894928 372.364044,208.726486 372.364410,213.557938 
	C372.366699,245.879379 372.373810,278.200806 372.358215,310.522247 
	C372.354431,318.370026 371.692566,318.987701 363.726532,319.000305 
	C359.061584,319.007690 354.396088,319.046204 349.731842,318.988495 
	C344.183655,318.919891 342.978241,317.759277 342.966339,312.198547 
	C342.924927,292.872406 342.949036,273.546143 342.948212,254.219910 
	C342.948181,253.129807 342.948242,252.039703 342.948242,250.949600 
	C342.628967,250.849625 342.309662,250.749649 341.990387,250.649673 
	C339.626373,254.736221 337.251312,258.816437 334.901062,262.910889 
	C331.835327,268.251740 328.481049,273.455811 325.821320,278.992767 
	C323.149292,284.555237 319.291260,286.413788 313.148407,286.341492 
	C307.528717,286.275299 304.326569,284.348419 301.727417,279.514984 
	C296.481415,269.759369 290.716339,260.282928 284.104675,250.903290 
	C284.104675,253.132614 284.104706,255.361923 284.104675,257.591248 
	C284.104462,275.251434 284.112213,292.911591 284.100464,310.571777 
	C284.095306,318.351471 283.426208,318.989075 275.453857,319.000549 
	C270.955505,319.007050 266.457123,319.016113 261.958832,318.998077 
	C255.164307,318.970825 254.080078,317.932373 254.074493,311.243866 
	C254.056030,289.085358 254.067154,266.926849 254.067078,244.768326 
	C254.067032,230.606873 254.062683,216.445419 254.069092,202.283966 
	C254.072922,193.834076 254.815628,193.081039 263.066376,193.067612 
	C264.232513,193.065720 265.398651,193.067154 267.053284,193.067047 
z"/>
<path fill="#FDFEFF" opacity="1.000000" stroke="none" 
	d="
M146.661423,307.344971 
	C138.438049,299.298767 135.231171,289.609406 134.985916,278.690186 
	C134.892593,274.535217 136.650696,272.488678 140.900391,272.543396 
	C146.896255,272.620605 152.895142,272.641083 158.890244,272.539459 
	C163.196365,272.466492 164.538284,274.768768 164.983841,278.698212 
	C166.000229,287.661743 170.804520,292.045471 179.255280,292.252747 
	C189.533676,292.504852 196.233002,288.322388 196.560242,279.047607 
	C197.280411,258.636322 196.783768,238.182114 196.783768,217.180359 
	C186.642838,217.180359 176.694992,217.191269 166.747162,217.176910 
	C158.803024,217.165436 158.183472,216.546051 158.158798,208.672455 
	C158.145752,204.508011 158.166794,200.343460 158.170090,196.178955 
	C158.173096,192.378250 159.895004,190.184265 163.865448,190.181839 
	C183.022110,190.170135 202.178787,190.166397 221.335449,190.179688 
	C225.169250,190.182343 227.186813,192.023651 227.175446,195.997498 
	C227.092545,224.980988 227.302292,253.968872 226.830017,282.945770 
	C226.666534,292.976074 221.955307,301.515167 214.109131,308.047546 
	C196.296310,322.877747 164.537155,322.655396 146.661423,307.344971 
z"/>
</svg>